<?xml version="1.0" encoding="UTF-8"?>
<svg xmlns="http://www.w3.org/2000/svg" style="display:none">
  <!-- ═════════ Navigare sidebar ═════════ -->
  <symbol id="ico-edit" viewBox="0 0 24 24" fill="none" stroke="currentColor" stroke-width="2" stroke-linecap="round" stroke-linejoin="round">
    <path d="M11 4H4a2 2 0 0 0-2 2v14a2 2 0 0 0 2 2h14a2 2 0 0 0 2-2v-7"/>
    <path d="M18.5 2.5a2.121 2.121 0 0 1 3 3L12 15l-4 1 1-4 9.5-9.5z"/>
  </symbol>
  <symbol id="ico-folder" viewBox="0 0 24 24" fill="none" stroke="currentColor" stroke-width="2" stroke-linecap="round" stroke-linejoin="round">
    <path d="M22 19a2 2 0 0 1-2 2H4a2 2 0 0 1-2-2V5a2 2 0 0 1 2-2h5l2 3h9a2 2 0 0 1 2 2z"/>
  </symbol>
  <symbol id="ico-grid" viewBox="0 0 24 24" fill="none" stroke="currentColor" stroke-width="2" stroke-linecap="round" stroke-linejoin="round">
    <rect x="3" y="3" width="7" height="7"/>
    <rect x="14" y="3" width="7" height="7"/>
    <rect x="3" y="14" width="7" height="7"/>
    <rect x="14" y="14" width="7" height="7"/>
  </symbol>
  <symbol id="ico-file-text" viewBox="0 0 24 24" fill="none" stroke="currentColor" stroke-width="2" stroke-linecap="round" stroke-linejoin="round">
    <path d="M14 2H6a2 2 0 0 0-2 2v16a2 2 0 0 0 2 2h12a2 2 0 0 0 2-2V8z"/>
    <polyline points="14 2 14 8 20 8"/>
    <line x1="16" y1="13" x2="8" y2="13"/>
    <line x1="16" y1="17" x2="8" y2="17"/>
  </symbol>
  <symbol id="ico-layout" viewBox="0 0 24 24" fill="none" stroke="currentColor" stroke-width="2" stroke-linecap="round" stroke-linejoin="round">
    <rect x="3" y="3" width="7" height="9"/>
    <rect x="14" y="3" width="7" height="5"/>
    <rect x="14" y="12" width="7" height="9"/>
    <rect x="3" y="16" width="7" height="5"/>
  </symbol>
  <symbol id="ico-users" viewBox="0 0 24 24" fill="none" stroke="currentColor" stroke-width="2" stroke-linecap="round" stroke-linejoin="round">
    <path d="M16 21v-2a4 4 0 0 0-4-4H6a4 4 0 0 0-4 4v2"/>
    <circle cx="9" cy="7" r="4"/>
    <path d="M22 21v-2a4 4 0 0 0-3-3.87"/>
    <path d="M16 3.13a4 4 0 0 1 0 7.75"/>
  </symbol>
  <symbol id="ico-git-branch" viewBox="0 0 24 24" fill="none" stroke="currentColor" stroke-width="2" stroke-linecap="round" stroke-linejoin="round">
    <line x1="6" y1="3" x2="6" y2="15"/>
    <circle cx="18" cy="6" r="3"/>
    <circle cx="6" cy="18" r="3"/>
    <path d="M18 9a9 9 0 0 1-9 9"/>
  </symbol>
  <symbol id="ico-bar-chart" viewBox="0 0 24 24" fill="none" stroke="currentColor" stroke-width="2" stroke-linecap="round" stroke-linejoin="round">
    <line x1="12" y1="20" x2="12" y2="10"/>
    <line x1="18" y1="20" x2="18" y2="4"/>
    <line x1="6" y1="20" x2="6" y2="14"/>
  </symbol>
  <symbol id="ico-building" viewBox="0 0 24 24" fill="none" stroke="currentColor" stroke-width="2" stroke-linecap="round" stroke-linejoin="round">
    <rect x="4" y="2" width="16" height="20" rx="2"/>
    <path d="M9 22v-4h6v4"/>
    <path d="M8 6h.01"/><path d="M16 6h.01"/><path d="M12 6h.01"/>
    <path d="M12 10h.01"/><path d="M12 14h.01"/>
    <path d="M16 10h.01"/><path d="M16 14h.01"/>
    <path d="M8 10h.01"/><path d="M8 14h.01"/>
  </symbol>
  <symbol id="ico-send" viewBox="0 0 24 24" fill="none" stroke="currentColor" stroke-width="2" stroke-linecap="round" stroke-linejoin="round">
    <line x1="22" y1="2" x2="11" y2="13"/>
    <polygon points="22 2 15 22 11 13 2 9 22 2"/>
  </symbol>
  <symbol id="ico-trending-up" viewBox="0 0 24 24" fill="none" stroke="currentColor" stroke-width="2" stroke-linecap="round" stroke-linejoin="round">
    <polyline points="23 6 13.5 15.5 8.5 10.5 1 18"/>
    <polyline points="17 6 23 6 23 12"/>
  </symbol>
  <symbol id="ico-search" viewBox="0 0 24 24" fill="none" stroke="currentColor" stroke-width="2" stroke-linecap="round" stroke-linejoin="round">
    <circle cx="11" cy="11" r="8"/>
    <line x1="21" y1="21" x2="16.65" y2="16.65"/>
  </symbol>
  <symbol id="ico-bell" viewBox="0 0 24 24" fill="none" stroke="currentColor" stroke-width="2" stroke-linecap="round" stroke-linejoin="round">
    <path d="M18 8A6 6 0 0 0 6 8c0 7-3 9-3 9h18s-3-2-3-9"/>
    <path d="M13.73 21a2 2 0 0 1-3.46 0"/>
  </symbol>

  <!-- ═════════ User menu ═════════ -->
  <symbol id="ico-chevron-down" viewBox="0 0 24 24" fill="none" stroke="currentColor" stroke-width="2" stroke-linecap="round" stroke-linejoin="round">
    <polyline points="6 9 12 15 18 9"/>
  </symbol>
  <symbol id="ico-key" viewBox="0 0 24 24" fill="none" stroke="currentColor" stroke-width="2" stroke-linecap="round" stroke-linejoin="round">
    <path d="M21 2l-2 2m-7.61 7.61a5.5 5.5 0 1 1-7.778 7.778 5.5 5.5 0 0 1 7.777-7.777zm0 0L15.5 7.5m0 0 3 3L22 7l-3-3m-3.5 3.5L19 4"/>
  </symbol>
  <symbol id="ico-shield" viewBox="0 0 24 24" fill="none" stroke="currentColor" stroke-width="2" stroke-linecap="round" stroke-linejoin="round">
    <path d="M12 22s8-4 8-10V5l-8-3-8 3v7c0 6 8 10 8 10z"/>
    <path d="m9 12 2 2 4-4"/>
  </symbol>
  <symbol id="ico-log-out" viewBox="0 0 24 24" fill="none" stroke="currentColor" stroke-width="2" stroke-linecap="round" stroke-linejoin="round">
    <path d="M9 21H5a2 2 0 0 1-2-2V5a2 2 0 0 1 2-2h4"/>
    <polyline points="16 17 21 12 16 7"/>
    <line x1="21" y1="12" x2="9" y2="12"/>
  </symbol>

  <!-- ═════════ Action buttons ═════════ -->
  <symbol id="ico-arrow-left" viewBox="0 0 24 24" fill="none" stroke="currentColor" stroke-width="2" stroke-linecap="round" stroke-linejoin="round">
    <line x1="19" y1="12" x2="5" y2="12"/>
    <polyline points="12 19 5 12 12 5"/>
  </symbol>
  <symbol id="ico-refresh" viewBox="0 0 24 24" fill="none" stroke="currentColor" stroke-width="2" stroke-linecap="round" stroke-linejoin="round">
    <polyline points="23 4 23 10 17 10"/>
    <path d="M20.49 15a9 9 0 1 1-2.12-9.36L23 10"/>
  </symbol>
  <symbol id="ico-download" viewBox="0 0 24 24" fill="none" stroke="currentColor" stroke-width="2" stroke-linecap="round" stroke-linejoin="round">
    <path d="M21 15v4a2 2 0 0 1-2 2H5a2 2 0 0 1-2-2v-4"/>
    <polyline points="7 10 12 15 17 10"/>
    <line x1="12" y1="15" x2="12" y2="3"/>
  </symbol>
  <symbol id="ico-upload" viewBox="0 0 24 24" fill="none" stroke="currentColor" stroke-width="2" stroke-linecap="round" stroke-linejoin="round">
    <path d="M21 15v4a2 2 0 0 1-2 2H5a2 2 0 0 1-2-2v-4"/>
    <polyline points="17 8 12 3 7 8"/>
    <line x1="12" y1="3" x2="12" y2="15"/>
  </symbol>
  <symbol id="ico-paperclip" viewBox="0 0 24 24" fill="none" stroke="currentColor" stroke-width="2" stroke-linecap="round" stroke-linejoin="round">
    <path d="M21.44 11.05l-9.19 9.19a6 6 0 0 1-8.49-8.49l9.19-9.19a4 4 0 0 1 5.66 5.66l-9.2 9.19a2 2 0 0 1-2.83-2.83l8.49-8.48"/>
  </symbol>
  <symbol id="ico-mail" viewBox="0 0 24 24" fill="none" stroke="currentColor" stroke-width="2" stroke-linecap="round" stroke-linejoin="round">
    <path d="M4 4h16c1.1 0 2 .9 2 2v12c0 1.1-.9 2-2 2H4c-1.1 0-2-.9-2-2V6c0-1.1.9-2 2-2z"/>
    <polyline points="22,6 12,13 2,6"/>
  </symbol>
  <symbol id="ico-x-circle" viewBox="0 0 24 24" fill="none" stroke="currentColor" stroke-width="2" stroke-linecap="round" stroke-linejoin="round">
    <circle cx="12" cy="12" r="10"/>
    <line x1="15" y1="9" x2="9" y2="15"/>
    <line x1="9" y1="9" x2="15" y2="15"/>
  </symbol>
  <symbol id="ico-x" viewBox="0 0 24 24" fill="none" stroke="currentColor" stroke-width="2" stroke-linecap="round" stroke-linejoin="round">
    <line x1="18" y1="6" x2="6" y2="18"/>
    <line x1="6" y1="6" x2="18" y2="18"/>
  </symbol>
  <symbol id="ico-check" viewBox="0 0 24 24" fill="none" stroke="currentColor" stroke-width="2" stroke-linecap="round" stroke-linejoin="round">
    <polyline points="20 6 9 17 4 12"/>
  </symbol>
  <symbol id="ico-alert-triangle" viewBox="0 0 24 24" fill="none" stroke="currentColor" stroke-width="2" stroke-linecap="round" stroke-linejoin="round">
    <path d="M10.29 3.86L1.82 18a2 2 0 0 0 1.71 3h16.94a2 2 0 0 0 1.71-3L13.71 3.86a2 2 0 0 0-3.42 0z"/>
    <line x1="12" y1="9" x2="12" y2="13"/>
    <line x1="12" y1="17" x2="12.01" y2="17"/>
  </symbol>
  <symbol id="ico-trash" viewBox="0 0 24 24" fill="none" stroke="currentColor" stroke-width="2" stroke-linecap="round" stroke-linejoin="round">
    <polyline points="3 6 5 6 21 6"/>
    <path d="M19 6v14a2 2 0 0 1-2 2H7a2 2 0 0 1-2-2V6m3 0V4a2 2 0 0 1 2-2h4a2 2 0 0 1 2 2v2"/>
    <line x1="10" y1="11" x2="10" y2="17"/>
    <line x1="14" y1="11" x2="14" y2="17"/>
  </symbol>
  <symbol id="ico-plus" viewBox="0 0 24 24" fill="none" stroke="currentColor" stroke-width="2" stroke-linecap="round" stroke-linejoin="round">
    <line x1="12" y1="5" x2="12" y2="19"/>
    <line x1="5" y1="12" x2="19" y2="12"/>
  </symbol>
  <symbol id="ico-save" viewBox="0 0 24 24" fill="none" stroke="currentColor" stroke-width="2" stroke-linecap="round" stroke-linejoin="round">
    <path d="M19 21H5a2 2 0 0 1-2-2V5a2 2 0 0 1 2-2h11l5 5v11a2 2 0 0 1-2 2z"/>
    <polyline points="17 21 17 13 7 13 7 21"/>
    <polyline points="7 3 7 8 15 8"/>
  </symbol>
  <symbol id="ico-file-shield" viewBox="0 0 24 24" fill="none" stroke="currentColor" stroke-width="2" stroke-linecap="round" stroke-linejoin="round">
    <path d="M14 2H6a2 2 0 0 0-2 2v16a2 2 0 0 0 2 2h12a2 2 0 0 0 2-2V8z"/>
    <polyline points="14 2 14 8 20 8"/>
    <path d="m9 15 2 2 4-4"/>
  </symbol>
  <symbol id="ico-file-search" viewBox="0 0 24 24" fill="none" stroke="currentColor" stroke-width="2" stroke-linecap="round" stroke-linejoin="round">
    <path d="M14 2H6a2 2 0 0 0-2 2v16a2 2 0 0 0 2 2h12a2 2 0 0 0 2-2V8z"/>
    <polyline points="14 2 14 8 20 8"/>
    <circle cx="11.5" cy="14.5" r="2.5"/>
    <line x1="13.27" y1="16.27" x2="15" y2="18"/>
  </symbol>
  <symbol id="ico-eye" viewBox="0 0 24 24" fill="none" stroke="currentColor" stroke-width="2" stroke-linecap="round" stroke-linejoin="round">
    <path d="M1 12s4-8 11-8 11 8 11 8-4 8-11 8-11-8-11-8z"/>
    <circle cx="12" cy="12" r="3"/>
  </symbol>
  <symbol id="ico-settings" viewBox="0 0 24 24" fill="none" stroke="currentColor" stroke-width="2" stroke-linecap="round" stroke-linejoin="round">
    <circle cx="12" cy="12" r="3"/>
    <path d="M19.4 15a1.65 1.65 0 0 0 .33 1.82l.06.06a2 2 0 0 1 0 2.83 2 2 0 0 1-2.83 0l-.06-.06a1.65 1.65 0 0 0-1.82-.33 1.65 1.65 0 0 0-1 1.51V21a2 2 0 0 1-2 2 2 2 0 0 1-2-2v-.09A1.65 1.65 0 0 0 9 19.4a1.65 1.65 0 0 0-1.82.33l-.06.06a2 2 0 0 1-2.83 0 2 2 0 0 1 0-2.83l.06-.06a1.65 1.65 0 0 0 .33-1.82 1.65 1.65 0 0 0-1.51-1H3a2 2 0 0 1-2-2 2 2 0 0 1 2-2h.09A1.65 1.65 0 0 0 4.6 9a1.65 1.65 0 0 0-.33-1.82l-.06-.06a2 2 0 0 1 0-2.83 2 2 0 0 1 2.83 0l.06.06a1.65 1.65 0 0 0 1.82.33H9a1.65 1.65 0 0 0 1-1.51V3a2 2 0 0 1 2-2 2 2 0 0 1 2 2v.09a1.65 1.65 0 0 0 1 1.51 1.65 1.65 0 0 0 1.82-.33l.06-.06a2 2 0 0 1 2.83 0 2 2 0 0 1 0 2.83l-.06.06a1.65 1.65 0 0 0-.33 1.82V9a1.65 1.65 0 0 0 1.51 1H21a2 2 0 0 1 2 2 2 2 0 0 1-2 2h-.09a1.65 1.65 0 0 0-1.51 1z"/>
  </symbol>
  <symbol id="ico-edit-pencil" viewBox="0 0 24 24" fill="none" stroke="currentColor" stroke-width="2" stroke-linecap="round" stroke-linejoin="round">
    <path d="M12 20h9"/>
    <path d="M16.5 3.5a2.121 2.121 0 0 1 3 3L7 19l-4 1 1-4L16.5 3.5z"/>
  </symbol>
  <symbol id="ico-pen-tool" viewBox="0 0 24 24" fill="none" stroke="currentColor" stroke-width="2" stroke-linecap="round" stroke-linejoin="round">
    <path d="M12 19l7-7 3 3-7 7-3-3z"/>
    <path d="M18 13l-1.5-7.5L2 2l3.5 14.5L13 18l5-5z"/>
    <path d="M2 2l7.586 7.586"/>
    <circle cx="11" cy="11" r="2"/>
  </symbol>
  <symbol id="ico-clock" viewBox="0 0 24 24" fill="none" stroke="currentColor" stroke-width="2" stroke-linecap="round" stroke-linejoin="round">
    <circle cx="12" cy="12" r="10"/>
    <polyline points="12 6 12 12 16 14"/>
  </symbol>
  <symbol id="ico-ban" viewBox="0 0 24 24" fill="none" stroke="currentColor" stroke-width="2" stroke-linecap="round" stroke-linejoin="round">
    <circle cx="12" cy="12" r="10"/>
    <line x1="4.93" y1="4.93" x2="19.07" y2="19.07"/>
  </symbol>

<!-- ══════════════════════════════════════════════════════════════
     EXTINDERE v3.9.288 — 22 simboluri noi pentru taxonomia butoane
     Toate Lucide-stroke, stroke="currentColor", viewBox 0 0 24 24
     ══════════════════════════════════════════════════════════════ -->

<symbol id="ico-anchor" viewBox="0 0 24 24" fill="none" stroke="currentColor">
  <circle cx="12" cy="5" r="3"/>
  <line x1="12" y1="22" x2="12" y2="8"/>
  <path d="M5 12H2a10 10 0 0 0 20 0h-3"/>
</symbol>

<symbol id="ico-clipboard" viewBox="0 0 24 24" fill="none" stroke="currentColor">
  <rect x="8" y="2" width="8" height="4" rx="1" ry="1"/>
  <path d="M16 4h2a2 2 0 0 1 2 2v14a2 2 0 0 1-2 2H6a2 2 0 0 1-2-2V6a2 2 0 0 1 2-2h2"/>
</symbol>

<symbol id="ico-file-signature" viewBox="0 0 24 24" fill="none" stroke="currentColor">
  <path d="M14 2H6a2 2 0 0 0-2 2v16a2 2 0 0 0 2 2h12a2 2 0 0 0 2-2V8z"/>
  <polyline points="14 2 14 8 20 8"/>
  <path d="M8 18h8"/>
  <path d="M8 14c1.5-1 3-1 4 0s2.5 1 4 0"/>
</symbol>

<symbol id="ico-landmark" viewBox="0 0 24 24" fill="none" stroke="currentColor">
  <line x1="3" y1="22" x2="21" y2="22"/>
  <line x1="6" y1="18" x2="6" y2="11"/>
  <line x1="10" y1="18" x2="10" y2="11"/>
  <line x1="14" y1="18" x2="14" y2="11"/>
  <line x1="18" y1="18" x2="18" y2="11"/>
  <polygon points="12 2 20 7 4 7"/>
</symbol>

<symbol id="ico-rocket" viewBox="0 0 24 24" fill="none" stroke="currentColor">
  <path d="M4.5 16.5c-1.5 1.26-2 5-2 5s3.74-.5 5-2c.71-.84.7-2.13-.09-2.91a2.18 2.18 0 0 0-2.91-.09z"/>
  <path d="M12 15l-3-3a22 22 0 0 1 2-3.95A12.88 12.88 0 0 1 22 2c0 2.72-.78 7.5-6 11a22.35 22.35 0 0 1-4 2z"/>
  <path d="M9 12H4s.55-3.03 2-4c1.62-1.08 5 0 5 0"/>
  <path d="M12 15v5s3.03-.55 4-2c1.08-1.62 0-5 0-5"/>
</symbol>

<symbol id="ico-check-circle" viewBox="0 0 24 24" fill="none" stroke="currentColor">
  <path d="M22 11.08V12a10 10 0 1 1-5.93-9.14"/>
  <polyline points="22 4 12 14.01 9 11.01"/>
</symbol>

<symbol id="ico-check-square" viewBox="0 0 24 24" fill="none" stroke="currentColor">
  <polyline points="9 11 12 14 22 4"/>
  <path d="M21 12v7a2 2 0 0 1-2 2H5a2 2 0 0 1-2-2V5a2 2 0 0 1 2-2h11"/>
</symbol>

<symbol id="ico-link" viewBox="0 0 24 24" fill="none" stroke="currentColor">
  <path d="M10 13a5 5 0 0 0 7.54.54l3-3a5 5 0 0 0-7.07-7.07l-1.72 1.71"/>
  <path d="M14 11a5 5 0 0 0-7.54-.54l-3 3a5 5 0 0 0 7.07 7.07l1.71-1.71"/>
</symbol>

<symbol id="ico-arrow-right" viewBox="0 0 24 24" fill="none" stroke="currentColor">
  <line x1="5" y1="12" x2="19" y2="12"/>
  <polyline points="12 5 19 12 12 19"/>
</symbol>

<symbol id="ico-rotate-cw" viewBox="0 0 24 24" fill="none" stroke="currentColor">
  <polyline points="23 4 23 10 17 10"/>
  <path d="M20.49 15a9 9 0 1 1-2.12-9.36L23 10"/>
</symbol>

<symbol id="ico-rotate-ccw" viewBox="0 0 24 24" fill="none" stroke="currentColor">
  <polyline points="1 4 1 10 7 10"/>
  <path d="M3.51 15a9 9 0 1 0 2.13-9.36L1 10"/>
</symbol>

<symbol id="ico-corner-up-left" viewBox="0 0 24 24" fill="none" stroke="currentColor">
  <polyline points="9 14 4 9 9 4"/>
  <path d="M20 20v-7a4 4 0 0 0-4-4H4"/>
</symbol>

<symbol id="ico-repeat" viewBox="0 0 24 24" fill="none" stroke="currentColor">
  <polyline points="17 1 21 5 17 9"/>
  <path d="M3 11V9a4 4 0 0 1 4-4h14"/>
  <polyline points="7 23 3 19 7 15"/>
  <path d="M21 13v2a4 4 0 0 1-4 4H3"/>
</symbol>

<symbol id="ico-upload-cloud" viewBox="0 0 24 24" fill="none" stroke="currentColor">
  <polyline points="16 16 12 12 8 16"/>
  <line x1="12" y1="12" x2="12" y2="21"/>
  <path d="M20.39 18.39A5 5 0 0 0 18 9h-1.26A8 8 0 1 0 3 16.3"/>
  <polyline points="16 16 12 12 8 16"/>
</symbol>

<symbol id="ico-play" viewBox="0 0 24 24" fill="none" stroke="currentColor">
  <polygon points="5 3 19 12 5 21 5 3"/>
</symbol>

<symbol id="ico-scroll" viewBox="0 0 24 24" fill="none" stroke="currentColor">
  <path d="M10 17v2a2 2 0 0 1-2 2H6a2 2 0 0 1-2-2V5a2 2 0 0 1 2-2h12a2 2 0 0 1 2 2v14a2 2 0 0 1-2 2h-8"/>
  <path d="M15 8h-5"/>
  <path d="M15 12h-5"/>
</symbol>

<symbol id="ico-archive" viewBox="0 0 24 24" fill="none" stroke="currentColor">
  <polyline points="21 8 21 21 3 21 3 8"/>
  <rect x="1" y="3" width="22" height="5"/>
  <line x1="10" y1="12" x2="14" y2="12"/>
</symbol>

<symbol id="ico-zap" viewBox="0 0 24 24" fill="none" stroke="currentColor">
  <polygon points="13 2 3 14 12 14 11 22 21 10 12 10 13 2"/>
</symbol>

<symbol id="ico-star" viewBox="0 0 24 24" fill="none" stroke="currentColor">
  <polygon points="12 2 15.09 8.26 22 9.27 17 14.14 18.18 21.02 12 17.77 5.82 21.02 7 14.14 2 9.27 8.91 8.26 12 2"/>
</symbol>

<symbol id="ico-dices" viewBox="0 0 24 24" fill="none" stroke="currentColor">
  <rect x="2" y="10" width="12" height="12" rx="2" ry="2"/>
  <path d="M6 18h.01"/>
  <path d="M10 14h.01"/>
  <path d="M15 6h.01"/>
  <path d="M18 9h.01"/>
  <path d="M18 15h.01"/>
  <path d="M15 18h.01"/>
  <path d="M7.26 10.41a2.11 2.11 0 0 1 .28-2.74l5.66-5.66a2.12 2.12 0 0 1 3 0l5.66 5.66a2.12 2.12 0 0 1 0 3l-5.66 5.66"/>
</symbol>

<symbol id="ico-flask" viewBox="0 0 24 24" fill="none" stroke="currentColor">
  <path d="M10 2v7.31"/>
  <path d="M14 9.3V1.99"/>
  <path d="M8.5 2h7"/>
  <path d="M14 9.3a6.5 6.5 0 1 1-4 0"/>
  <path d="M5.52 16h12.96"/>
</symbol>

<symbol id="ico-sparkles" viewBox="0 0 24 24" fill="none" stroke="currentColor">
  <path d="M12 3l1.912 5.813a2 2 0 0 0 1.275 1.275L21 12l-5.813 1.912a2 2 0 0 0-1.275 1.275L12 21l-1.912-5.813a2 2 0 0 0-1.275-1.275L3 12l5.813-1.912a2 2 0 0 0 1.275-1.275L12 3z"/>
  <path d="M5 3v4"/>
  <path d="M19 17v4"/>
  <path d="M3 5h4"/>
  <path d="M17 19h4"/>
</symbol>
</svg>
